<svg width="179" height="161" viewBox="0 0 179 161" fill="none" xmlns="http://www.w3.org/2000/svg">
<path d="M8.47 88.9905C6.72748 85.6477 4.05843 82.5206 2.28876 81.7484C1.65883 81.4741 0.972679 81.2998 0.762383 81.3604C-0.476189 81.7196 -0.147644 92.1013 1.32838 99.2259C2.89644 106.797 7.01337 116.835 11.392 123.764C21.3528 139.527 37.7062 150.946 59.0884 157.068C66.7534 159.263 77.1494 160.831 84.0429 160.831H87.5745V159.712C87.5745 155.718 84.9442 148.393 81.7538 143.499C78.3414 138.266 68.1131 130.331 68.1131 130.331C68.1131 130.331 59.6796 125.397 51.1143 121.95C39.0445 117.091 37.5482 116.391 29.5886 111.865C26.3478 110.023 24.7758 109.64 23.9249 110.486C23.201 111.204 23.3793 112.225 24.6353 114.567C26.5087 118.058 30.4192 122.658 34.0544 125.647C35.9084 127.171 41.071 130.804 45.5272 133.723C49.9833 136.64 53.4451 139.088 53.2193 139.162C52.4187 139.428 46.1116 137.234 41.9743 135.252C35.4587 132.13 29.1322 127.329 24.9929 122.366C19.9456 116.311 16.5856 109.987 12.6014 99.0362C11.1981 95.1793 9.33836 90.6581 8.47 88.9905Z" fill="#FEF9F5"/>
<path d="M82.8651 2.15675C83.9292 1.51168 85.7318 0.730864 86.8715 0.42181C90.7704 -0.636292 93.0266 0.111792 100.074 4.79479C113.939 14.0067 173.468 56.0824 173.468 56.6688C173.468 56.7949 169.756 56.9162 165.219 56.9374L156.97 56.9759L145.09 49.0242C125.669 36.0266 92.4121 14.2282 90.247 13.0776C89.2275 12.5346 88.3107 13.1123 52.9631 36.56C37.3715 46.9032 24.0632 55.7069 23.3897 56.1238C22.278 56.8122 21.399 56.8912 13.832 56.9845C8.39796 57.05 5.54287 56.9537 5.62718 56.7073C5.76286 56.3106 10.7898 52.6924 41.4361 30.9306C60.5311 17.3717 79.474 4.21519 82.8651 2.15675Z" fill="#FEF9F5"/>
<path d="M23.5709 65.9392C28.1656 59.2806 36.9586 54.5398 46.1219 53.7801C62.3308 52.4371 77.7955 59.5068 86.1282 72.0712C88.7332 75.9993 88.9445 76.7667 87.1322 75.7124C85.004 74.4753 80.135 73.0503 77.2295 72.8154C71.7907 72.3754 66.347 74.456 62.233 78.5469C56.7728 83.977 55.4286 92.1183 58.6355 100.34C60.8384 105.99 64.272 110.704 72.5088 119.385C80.6167 127.931 82.7255 130.298 84.6599 133.021C87.1671 136.55 87.736 137.495 87.3512 137.495C87.1613 137.495 84.6919 135.405 81.863 132.851C67.5342 119.912 61.8986 116.593 43.7262 110.39C28.7723 105.285 25.107 102.948 21.8952 96.4701C19.6081 91.8584 18.7746 88.0968 18.762 82.3354C18.7484 75.5738 20.0975 70.9726 23.5709 65.9392Z" fill="#FEF9F5"/>
<path d="M103.971 61.3159C108.947 57.9818 116.549 55.0289 122.525 54.1085C126.312 53.526 135.049 53.9072 138.552 54.8094C147.554 57.1249 155.124 63.4581 158.365 71.3857C162.748 82.1015 159.892 96.3248 151.859 103.774C147.5 107.817 142.968 110.25 130.958 114.994C120.142 119.268 113.224 122.483 108.215 125.565C104.813 127.658 96.9041 133.411 93.5538 136.231C92.73 136.925 91.9944 137.429 91.9179 137.353C91.6736 137.11 95.8652 131.322 98.1659 128.727C99.3909 127.345 103.054 123.367 106.308 119.886C118.413 106.935 122.339 100.012 122.332 91.6311C122.327 86.1067 120.606 81.9359 116.801 78.2138C113.361 74.8507 108.196 72.6883 103.566 72.6739C100.89 72.6652 96.5019 73.6867 93.767 74.9547C92.4315 75.5738 91.2695 76.0802 91.1832 76.0802C90.8557 76.0802 92.7348 72.7576 94.2923 70.5827C96.3556 67.7011 100.82 63.4273 103.971 61.3159Z" fill="#FEF9F5"/>
<path d="M170.53 89.1597C172.273 85.8169 174.942 82.6897 176.711 81.9176C177.341 81.6432 178.027 81.4689 178.238 81.5296C179.476 81.8887 179.148 92.2704 177.672 99.3951C176.104 106.966 171.987 117.005 167.608 123.933C157.647 139.696 141.294 151.115 119.912 157.237C112.247 159.433 101.851 161 94.9571 161H91.4255V159.881C91.4255 155.888 94.0558 148.562 97.2462 143.668C100.659 138.435 104.582 134.648 110.887 130.5C115.587 127.407 119.32 125.567 127.886 122.119C139.955 117.261 141.452 116.56 149.411 112.035C152.652 110.192 154.224 109.81 155.075 110.655C155.799 111.373 155.621 112.394 154.365 114.736C152.491 118.227 148.581 122.827 144.946 125.816C143.092 127.34 137.929 130.974 133.473 133.892C129.017 136.809 125.555 139.257 125.781 139.332C126.581 139.597 132.888 137.403 137.026 135.421C143.541 132.299 149.868 127.498 154.007 122.535C159.054 116.48 162.414 110.156 166.399 99.2054C167.802 95.3485 169.662 90.8272 170.53 89.1597Z" fill="#FEF9F5"/>
</svg>
