<svg width="483" height="139" viewBox="0 0 483 139" fill="none" xmlns="http://www.w3.org/2000/svg">
<path d="M456.706 60.7939V86.2046C457.884 83.1245 459.515 80.9956 461.598 79.8179C463.727 78.6403 465.946 78.0514 468.257 78.0514C469.978 78.0514 471.405 78.2779 472.537 78.7309C473.715 79.1838 474.688 79.8179 475.458 80.6333C476.319 81.5392 476.931 82.6715 477.293 84.0304C477.655 85.3893 477.836 87.2237 477.836 89.5338V107.675C477.836 109.577 478.221 110.868 478.992 111.547C479.807 112.227 481.143 112.566 483 112.566V113.993C482.23 113.948 481.052 113.903 479.467 113.857C477.882 113.767 476.342 113.721 474.847 113.721C473.352 113.721 471.88 113.767 470.431 113.857C469.027 113.903 467.962 113.948 467.237 113.993V112.566C468.868 112.566 470.023 112.227 470.702 111.547C471.382 110.868 471.722 109.577 471.722 107.675V88.039C471.722 86.6349 471.608 85.344 471.382 84.1663C471.155 82.9886 470.635 82.0374 469.819 81.3127C469.049 80.588 467.849 80.2256 466.218 80.2256C464.361 80.2256 462.708 80.7465 461.258 81.7883C459.854 82.8301 458.745 84.2795 457.929 86.1366C457.114 87.9937 456.706 90.1226 456.706 92.5233V107.675C456.706 109.577 457.046 110.868 457.725 111.547C458.405 112.227 459.56 112.566 461.19 112.566V113.993C460.466 113.948 459.379 113.903 457.929 113.857C456.525 113.767 455.076 113.721 453.581 113.721C452.086 113.721 450.546 113.767 448.961 113.857C447.375 113.903 446.198 113.948 445.428 113.993V112.566C447.285 112.566 448.598 112.227 449.368 111.547C450.184 110.868 450.591 109.577 450.591 107.675V68.9471C450.591 66.9088 450.229 65.4141 449.504 64.4629C448.78 63.4664 447.421 62.9681 445.428 62.9681V61.5413C446.877 61.6772 448.281 61.7451 449.64 61.7451C450.954 61.7451 452.199 61.6772 453.377 61.5413C454.6 61.3601 455.71 61.111 456.706 60.7939Z" fill="#FEF9F5"/>
<path d="M421.848 114.469C419.991 114.469 418.383 114.129 417.024 113.45C415.666 112.725 414.624 111.728 413.899 110.46C413.22 109.192 412.88 107.72 412.88 106.044C412.88 104.051 413.333 102.42 414.239 101.152C415.19 99.8836 416.39 98.8644 417.84 98.0944C419.289 97.3244 420.807 96.6903 422.392 96.192C424.023 95.6485 425.563 95.1502 427.012 94.6973C428.461 94.199 429.639 93.6328 430.545 92.9987C431.496 92.3646 431.972 91.5266 431.972 90.4848V86.2724C431.972 84.37 431.677 82.9205 431.089 81.924C430.545 80.9275 429.798 80.2707 428.846 79.9537C427.895 79.5913 426.831 79.4101 425.653 79.4101C424.521 79.4101 423.298 79.5687 421.984 79.8857C420.716 80.2028 419.697 80.8596 418.927 81.8561C419.787 82.0373 420.535 82.4902 421.169 83.2149C421.803 83.9397 422.12 84.8682 422.12 86.0006C422.12 87.133 421.758 88.0389 421.033 88.7183C420.308 89.3524 419.38 89.6695 418.247 89.6695C416.934 89.6695 415.96 89.2618 415.326 88.4465C414.737 87.5859 414.443 86.6347 414.443 85.5929C414.443 84.4153 414.737 83.4641 415.326 82.7393C415.915 82.0146 416.662 81.3352 417.568 80.701C418.61 79.9763 419.946 79.3648 421.577 78.8666C423.252 78.323 425.132 78.0513 427.216 78.0513C429.073 78.0513 430.658 78.2777 431.972 78.7307C433.285 79.1384 434.372 79.7498 435.233 80.5652C436.411 81.6522 437.181 82.9885 437.543 84.5738C437.906 86.1138 438.087 87.9709 438.087 90.1451V109.033C438.087 110.166 438.245 110.981 438.562 111.479C438.925 111.977 439.468 112.227 440.193 112.227C440.691 112.227 441.167 112.113 441.62 111.887C442.073 111.66 442.616 111.298 443.25 110.8L443.998 111.955C443.047 112.679 442.141 113.291 441.28 113.789C440.419 114.242 439.264 114.469 437.815 114.469C436.501 114.469 435.414 114.242 434.554 113.789C433.693 113.336 433.036 112.679 432.583 111.819C432.176 110.913 431.972 109.781 431.972 108.422C430.749 110.46 429.277 111.977 427.556 112.974C425.88 113.97 423.977 114.469 421.848 114.469ZM424.294 111.751C425.789 111.751 427.171 111.321 428.439 110.46C429.752 109.599 430.93 108.308 431.972 106.587V93.2705C431.428 94.0405 430.636 94.6973 429.594 95.2408C428.552 95.7391 427.42 96.26 426.197 96.8035C424.974 97.3017 423.796 97.9132 422.664 98.638C421.577 99.3174 420.671 100.223 419.946 101.356C419.221 102.488 418.859 103.96 418.859 105.772C418.859 107.584 419.334 109.033 420.286 110.12C421.282 111.207 422.618 111.751 424.294 111.751Z" fill="#FEF9F5"/>
<path d="M374.309 78.0513C375.894 78.0513 377.276 78.2777 378.454 78.7307C379.631 79.1837 380.605 79.8178 381.375 80.6331C382.236 81.539 382.825 82.7167 383.142 84.1661C383.459 85.6156 383.617 87.4047 383.617 89.5336V107.674C383.617 109.577 384.002 110.868 384.772 111.547C385.588 112.227 386.924 112.566 388.781 112.566V113.993C388.011 113.948 386.833 113.902 385.248 113.857C383.663 113.767 382.123 113.721 380.628 113.721C379.133 113.721 377.661 113.767 376.211 113.857C374.807 113.902 373.743 113.948 373.018 113.993V112.566C374.649 112.566 375.804 112.227 376.483 111.547C377.163 110.868 377.502 109.577 377.502 107.674V88.0389C377.502 86.6347 377.412 85.3438 377.231 84.1661C377.049 82.9885 376.596 82.0372 375.872 81.3125C375.147 80.5878 373.969 80.2254 372.339 80.2254C370.572 80.2254 368.987 80.769 367.583 81.8561C366.224 82.9432 365.137 84.4379 364.321 86.3403C363.551 88.1974 363.166 90.281 363.166 92.591V107.674C363.166 109.577 363.506 110.868 364.186 111.547C364.865 112.227 366.02 112.566 367.651 112.566V113.993C366.926 113.948 365.839 113.902 364.389 113.857C362.985 113.767 361.536 113.721 360.041 113.721C358.546 113.721 357.006 113.767 355.421 113.857C353.836 113.902 352.658 113.948 351.888 113.993V112.566C353.745 112.566 355.059 112.227 355.829 111.547C356.644 110.868 357.052 109.577 357.052 107.674V86.4082C357.052 84.37 356.689 82.8752 355.965 81.924C355.24 80.9275 353.881 80.4293 351.888 80.4293V79.0025C353.337 79.1384 354.742 79.2063 356.1 79.2063C357.414 79.2063 358.66 79.1384 359.837 79.0025C361.06 78.8213 362.17 78.5722 363.166 78.2551V86.2724C364.344 83.3282 365.952 81.2219 367.99 79.9537C370.029 78.6854 372.135 78.0513 374.309 78.0513ZM394.76 78.0513C396.345 78.0513 397.727 78.2777 398.904 78.7307C400.082 79.1837 401.056 79.8178 401.826 80.6331C402.687 81.539 403.275 82.7167 403.592 84.1661C403.91 85.6156 404.068 87.4047 404.068 89.5336V107.674C404.068 109.577 404.453 110.868 405.223 111.547C406.038 112.227 407.375 112.566 409.232 112.566V113.993C408.462 113.948 407.284 113.902 405.699 113.857C404.113 113.767 402.573 113.721 401.079 113.721C399.584 113.721 398.112 113.767 396.662 113.857C395.258 113.902 394.194 113.948 393.469 113.993V112.566C395.1 112.566 396.255 112.227 396.934 111.547C397.613 110.868 397.953 109.577 397.953 107.674V88.0389C397.953 86.6347 397.863 85.3438 397.681 84.1661C397.5 82.9885 397.047 82.0372 396.323 81.3125C395.598 80.5878 394.42 80.2254 392.79 80.2254C391.023 80.2254 389.438 80.769 388.034 81.8561C386.675 82.9432 385.588 84.4152 384.772 86.2724C384.002 88.1295 383.617 90.213 383.617 92.5231L383.413 86.2044C384.636 83.079 386.29 80.9502 388.373 79.8178C390.457 78.6401 392.586 78.0513 394.76 78.0513Z" fill="#FEF9F5"/>
<path d="M313.997 78.0513C315.582 78.0513 316.963 78.2777 318.141 78.7307C319.319 79.1837 320.293 79.8178 321.063 80.6331C321.923 81.539 322.512 82.7167 322.829 84.1661C323.146 85.6156 323.305 87.4047 323.305 89.5336V107.674C323.305 109.577 323.69 110.868 324.46 111.547C325.275 112.227 326.611 112.566 328.468 112.566V113.993C327.698 113.948 326.521 113.902 324.935 113.857C323.35 113.767 321.81 113.721 320.315 113.721C318.821 113.721 317.348 113.767 315.899 113.857C314.495 113.902 313.43 113.948 312.706 113.993V112.566C314.336 112.566 315.491 112.227 316.171 111.547C316.85 110.868 317.19 109.577 317.19 107.674V88.0389C317.19 86.6347 317.099 85.3438 316.918 84.1661C316.737 82.9885 316.284 82.0372 315.559 81.3125C314.835 80.5878 313.657 80.2254 312.026 80.2254C310.26 80.2254 308.674 80.769 307.27 81.8561C305.911 82.9432 304.824 84.4379 304.009 86.3403C303.239 88.1974 302.854 90.281 302.854 92.591V107.674C302.854 109.577 303.194 110.868 303.873 111.547C304.553 112.227 305.708 112.566 307.338 112.566V113.993C306.613 113.948 305.526 113.902 304.077 113.857C302.673 113.767 301.223 113.721 299.729 113.721C298.234 113.721 296.694 113.767 295.108 113.857C293.523 113.902 292.345 113.948 291.575 113.993V112.566C293.433 112.566 294.746 112.227 295.516 111.547C296.331 110.868 296.739 109.577 296.739 107.674V86.4082C296.739 84.37 296.377 82.8752 295.652 81.924C294.927 80.9275 293.568 80.4293 291.575 80.4293V79.0025C293.025 79.1384 294.429 79.2063 295.788 79.2063C297.101 79.2063 298.347 79.1384 299.525 79.0025C300.748 78.8213 301.857 78.5722 302.854 78.2551V86.2724C304.032 83.3282 305.64 81.2219 307.678 79.9537C309.716 78.6854 311.822 78.0513 313.997 78.0513ZM334.447 78.0513C336.033 78.0513 337.414 78.2777 338.592 78.7307C339.77 79.1837 340.743 79.8178 341.513 80.6331C342.374 81.539 342.963 82.7167 343.28 84.1661C343.597 85.6156 343.756 87.4047 343.756 89.5336V107.674C343.756 109.577 344.141 110.868 344.911 111.547C345.726 112.227 347.062 112.566 348.919 112.566V113.993C348.149 113.948 346.972 113.902 345.386 113.857C343.801 113.767 342.261 113.721 340.766 113.721C339.271 113.721 337.799 113.767 336.35 113.857C334.946 113.902 333.881 113.948 333.156 113.993V112.566C334.787 112.566 335.942 112.227 336.622 111.547C337.301 110.868 337.641 109.577 337.641 107.674V88.0389C337.641 86.6347 337.55 85.3438 337.369 84.1661C337.188 82.9885 336.735 82.0372 336.01 81.3125C335.285 80.5878 334.108 80.2254 332.477 80.2254C330.711 80.2254 329.125 80.769 327.721 81.8561C326.362 82.9432 325.275 84.4152 324.46 86.2724C323.69 88.1295 323.305 90.213 323.305 92.5231L323.101 86.2044C324.324 83.079 325.977 80.9502 328.061 79.8178C330.144 78.6401 332.273 78.0513 334.447 78.0513Z" fill="#FEF9F5"/>
<path d="M267.384 114.469C265.527 114.469 263.919 114.129 262.561 113.45C261.202 112.725 260.16 111.728 259.435 110.46C258.756 109.192 258.416 107.72 258.416 106.044C258.416 104.051 258.869 102.42 259.775 101.152C260.726 99.8836 261.926 98.8644 263.376 98.0944C264.825 97.3244 266.343 96.6903 267.928 96.192C269.559 95.6485 271.099 95.1502 272.548 94.6973C273.998 94.199 275.175 93.6328 276.081 92.9987C277.032 92.3646 277.508 91.5266 277.508 90.4848V86.2724C277.508 84.37 277.214 82.9205 276.625 81.924C276.081 80.9275 275.334 80.2707 274.383 79.9537C273.431 79.5913 272.367 79.4101 271.189 79.4101C270.057 79.4101 268.834 79.5687 267.52 79.8857C266.252 80.2028 265.233 80.8596 264.463 81.8561C265.324 82.0373 266.071 82.4902 266.705 83.2149C267.339 83.9397 267.656 84.8682 267.656 86.0006C267.656 87.133 267.294 88.0389 266.569 88.7183C265.844 89.3524 264.916 89.6695 263.784 89.6695C262.47 89.6695 261.496 89.2618 260.862 88.4465C260.273 87.5859 259.979 86.6347 259.979 85.5929C259.979 84.4153 260.273 83.4641 260.862 82.7393C261.451 82.0146 262.198 81.3352 263.104 80.701C264.146 79.9763 265.482 79.3648 267.113 78.8666C268.789 78.323 270.668 78.0513 272.752 78.0513C274.609 78.0513 276.194 78.2777 277.508 78.7307C278.822 79.1384 279.909 79.7498 280.769 80.5652C281.947 81.6522 282.717 82.9885 283.079 84.5738C283.442 86.1138 283.623 87.9709 283.623 90.1451V109.033C283.623 110.166 283.781 110.981 284.098 111.479C284.461 111.977 285.004 112.227 285.729 112.227C286.227 112.227 286.703 112.113 287.156 111.887C287.609 111.66 288.152 111.298 288.786 110.8L289.534 111.955C288.583 112.679 287.677 113.291 286.816 113.789C285.956 114.242 284.801 114.469 283.351 114.469C282.037 114.469 280.95 114.242 280.09 113.789C279.229 113.336 278.572 112.679 278.119 111.819C277.712 110.913 277.508 109.781 277.508 108.422C276.285 110.46 274.813 111.977 273.092 112.974C271.416 113.97 269.513 114.469 267.384 114.469ZM269.83 111.751C271.325 111.751 272.707 111.321 273.975 110.46C275.289 109.599 276.466 108.308 277.508 106.587V93.2705C276.964 94.0405 276.172 94.6973 275.13 95.2408C274.088 95.7391 272.956 96.26 271.733 96.8035C270.51 97.3017 269.332 97.9132 268.2 98.638C267.113 99.3174 266.207 100.223 265.482 101.356C264.757 102.488 264.395 103.96 264.395 105.772C264.395 107.584 264.871 109.033 265.822 110.12C266.818 111.207 268.154 111.751 269.83 111.751Z" fill="#FEF9F5"/>
<path d="M228.461 60.7939V86.2046C229.639 83.1245 231.269 80.9956 233.353 79.8179C235.482 78.6403 237.701 78.0514 240.011 78.0514C241.732 78.0514 243.159 78.2779 244.292 78.7309C245.469 79.1838 246.443 79.8179 247.213 80.6333C248.074 81.5392 248.685 82.6715 249.048 84.0304C249.41 85.3893 249.591 87.2237 249.591 89.5338V107.675C249.591 109.577 249.976 110.868 250.746 111.547C251.561 112.227 252.898 112.566 254.755 112.566V113.993C253.985 113.948 252.807 113.903 251.222 113.857C249.636 113.767 248.096 113.721 246.602 113.721C245.107 113.721 243.635 113.767 242.185 113.857C240.781 113.903 239.717 113.948 238.992 113.993V112.566C240.623 112.566 241.778 112.227 242.457 111.547C243.137 110.868 243.476 109.577 243.476 107.675V88.039C243.476 86.6349 243.363 85.344 243.137 84.1663C242.91 82.9886 242.389 82.0374 241.574 81.3127C240.804 80.588 239.604 80.2256 237.973 80.2256C236.116 80.2256 234.463 80.7465 233.013 81.7883C231.609 82.8301 230.499 84.2795 229.684 86.1366C228.869 87.9937 228.461 90.1226 228.461 92.5233V107.675C228.461 109.577 228.801 110.868 229.48 111.547C230.159 112.227 231.314 112.566 232.945 112.566V113.993C232.22 113.948 231.133 113.903 229.684 113.857C228.28 113.767 226.83 113.721 225.336 113.721C223.841 113.721 222.301 113.767 220.715 113.857C219.13 113.903 217.952 113.948 217.182 113.993V112.566C219.039 112.566 220.353 112.227 221.123 111.547C221.938 110.868 222.346 109.577 222.346 107.675V68.9471C222.346 66.9088 221.984 65.4141 221.259 64.4629C220.534 63.4664 219.175 62.9681 217.182 62.9681V61.5413C218.632 61.6772 220.036 61.7451 221.395 61.7451C222.708 61.7451 223.954 61.6772 225.132 61.5413C226.355 61.3601 227.464 61.111 228.461 60.7939Z" fill="#FEF9F5"/>
<path d="M194.494 60C196.997 60 198.899 60.3004 200.201 60.9011C201.502 61.4518 202.654 62.0776 203.655 62.7785C204.256 63.129 204.731 63.4043 205.082 63.6046C205.482 63.7547 205.858 63.8298 206.208 63.8298C206.709 63.8298 207.059 63.5545 207.26 63.0038C207.51 62.4531 207.71 61.6271 207.86 60.5257H209.588C209.538 61.3767 209.462 62.403 209.362 63.6046C209.312 64.756 209.262 66.308 209.212 68.2604C209.212 70.1628 209.212 72.691 209.212 75.845H207.485C207.335 73.442 206.809 71.1391 205.908 68.9363C205.007 66.7335 203.68 64.9312 201.928 63.5295C200.226 62.1277 197.973 61.4268 195.169 61.4268C192.516 61.4268 190.313 62.2278 188.561 63.8298C186.859 65.4319 186.008 67.5345 186.008 70.1378C186.008 72.3906 186.584 74.293 187.735 75.845C188.886 77.3469 190.413 78.7236 192.316 79.9752C194.268 81.1767 196.371 82.4784 198.624 83.8801C201.227 85.4822 203.53 87.0842 205.532 88.6862C207.585 90.2381 209.187 91.9653 210.339 93.8677C211.54 95.7701 212.141 98.073 212.141 100.776C212.141 103.98 211.415 106.634 209.963 108.736C208.511 110.839 206.584 112.416 204.181 113.467C201.778 114.519 199.124 115.044 196.221 115.044C193.567 115.044 191.465 114.744 189.913 114.143C188.361 113.543 187.034 112.917 185.933 112.266C184.831 111.565 183.98 111.215 183.38 111.215C182.879 111.215 182.503 111.49 182.253 112.041C182.053 112.591 181.878 113.417 181.727 114.519H180C180.1 113.467 180.15 112.241 180.15 110.839C180.2 109.387 180.226 107.51 180.226 105.207C180.276 102.904 180.301 100 180.301 96.496H182.028C182.228 99.4998 182.779 102.303 183.68 104.907C184.631 107.51 186.058 109.613 187.96 111.215C189.913 112.767 192.491 113.543 195.695 113.543C197.347 113.543 198.899 113.217 200.351 112.566C201.853 111.865 203.079 110.789 204.031 109.337C204.982 107.835 205.457 105.908 205.457 103.555C205.457 101.502 204.957 99.7251 203.955 98.2232C203.004 96.6713 201.653 95.2445 199.9 93.9428C198.148 92.5911 196.096 91.2144 193.743 89.8126C191.39 88.3608 189.187 86.8839 187.134 85.382C185.082 83.8801 183.43 82.153 182.178 80.2005C180.976 78.198 180.376 75.7949 180.376 72.9914C180.376 70.0377 181.027 67.6096 182.328 65.7072C183.68 63.7547 185.432 62.3279 187.585 61.4268C189.738 60.4756 192.04 60 194.494 60Z" fill="#FEF9F5"/>
<path d="M187.695 45.22C186.521 45.22 185.429 45.0293 184.417 44.648C183.419 44.252 182.547 43.702 181.799 42.998C181.065 42.2793 180.493 41.436 180.083 40.468C179.672 39.5 179.467 38.444 179.467 37.3C179.467 36.156 179.672 35.1 180.083 34.132C180.493 33.164 181.073 32.328 181.821 31.624C182.569 30.9053 183.441 30.3553 184.439 29.974C185.436 29.578 186.529 29.38 187.717 29.38C188.978 29.38 190.129 29.6 191.171 30.04C192.212 30.4653 193.092 31.1033 193.811 31.954L191.963 33.692C191.405 33.0907 190.782 32.6433 190.093 32.35C189.403 32.042 188.655 31.888 187.849 31.888C187.042 31.888 186.301 32.02 185.627 32.284C184.967 32.548 184.387 32.922 183.889 33.406C183.405 33.89 183.023 34.462 182.745 35.122C182.481 35.782 182.349 36.508 182.349 37.3C182.349 38.092 182.481 38.818 182.745 39.478C183.023 40.138 183.405 40.71 183.889 41.194C184.387 41.678 184.967 42.052 185.627 42.316C186.301 42.58 187.042 42.712 187.849 42.712C188.655 42.712 189.403 42.5653 190.093 42.272C190.782 41.964 191.405 41.502 191.963 40.886L193.811 42.646C193.092 43.482 192.212 44.12 191.171 44.56C190.129 45 188.971 45.22 187.695 45.22ZM195.617 45L202.547 29.6H205.363L212.315 45H209.323L203.361 31.118H204.505L198.565 45H195.617ZM198.807 41.436L199.577 39.192H207.893L208.663 41.436H198.807ZM220.808 45.22C219.605 45.22 218.454 45.0513 217.354 44.714C216.254 44.362 215.381 43.9147 214.736 43.372L215.726 41.15C216.342 41.634 217.105 42.0373 218.014 42.36C218.923 42.6827 219.855 42.844 220.808 42.844C221.615 42.844 222.267 42.756 222.766 42.58C223.265 42.404 223.631 42.1693 223.866 41.876C224.101 41.568 224.218 41.2233 224.218 40.842C224.218 40.3727 224.049 39.9987 223.712 39.72C223.375 39.4267 222.935 39.1993 222.392 39.038C221.864 38.862 221.27 38.7007 220.61 38.554C219.965 38.4073 219.312 38.2387 218.652 38.048C218.007 37.8427 217.413 37.586 216.87 37.278C216.342 36.9553 215.909 36.53 215.572 36.002C215.235 35.474 215.066 34.7993 215.066 33.978C215.066 33.142 215.286 32.3793 215.726 31.69C216.181 30.986 216.863 30.4287 217.772 30.018C218.696 29.5927 219.862 29.38 221.27 29.38C222.194 29.38 223.111 29.4973 224.02 29.732C224.929 29.9667 225.721 30.304 226.396 30.744L225.494 32.966C224.805 32.5553 224.093 32.2547 223.36 32.064C222.627 31.8587 221.923 31.756 221.248 31.756C220.456 31.756 219.811 31.8513 219.312 32.042C218.828 32.2327 218.469 32.482 218.234 32.79C218.014 33.098 217.904 33.45 217.904 33.846C217.904 34.3153 218.065 34.6967 218.388 34.99C218.725 35.2687 219.158 35.4887 219.686 35.65C220.229 35.8113 220.83 35.9727 221.49 36.134C222.15 36.2807 222.803 36.4493 223.448 36.64C224.108 36.8307 224.702 37.08 225.23 37.388C225.773 37.696 226.205 38.114 226.528 38.642C226.865 39.17 227.034 39.8373 227.034 40.644C227.034 41.4653 226.807 42.228 226.352 42.932C225.912 43.6213 225.23 44.1787 224.306 44.604C223.382 45.0147 222.216 45.22 220.808 45.22ZM229.452 45L236.382 29.6H239.198L246.15 45H243.158L237.196 31.118H238.34L232.4 45H229.452ZM232.642 41.436L233.412 39.192H241.728L242.498 41.436H232.642ZM257.708 45V29.6H264.44C266.112 29.6 267.579 29.9227 268.84 30.568C270.102 31.2133 271.084 32.108 271.788 33.252C272.492 34.396 272.844 35.7453 272.844 37.3C272.844 38.84 272.492 40.1893 271.788 41.348C271.084 42.492 270.102 43.3867 268.84 44.032C267.579 44.6773 266.112 45 264.44 45H257.708ZM260.568 42.58H264.308C265.452 42.58 266.45 42.36 267.3 41.92C268.151 41.48 268.804 40.864 269.258 40.072C269.728 39.28 269.962 38.356 269.962 37.3C269.962 36.2293 269.728 35.3053 269.258 34.528C268.804 33.736 268.151 33.12 267.3 32.68C266.45 32.24 265.452 32.02 264.308 32.02H260.568V42.58ZM277.644 45V29.6H288.886V31.998H280.504V42.602H289.194V45H277.644ZM280.284 38.356V36.002H287.94V38.356H280.284ZM301.983 45V29.6H308.297C310.35 29.6 311.956 30.084 313.115 31.052C314.288 32.02 314.875 33.362 314.875 35.078C314.875 36.2073 314.611 37.1827 314.083 38.004C313.555 38.8107 312.799 39.434 311.817 39.874C310.849 40.2993 309.683 40.512 308.319 40.512H303.567L304.843 39.214V45H301.983ZM312.059 45L308.165 39.412H311.223L315.139 45H312.059ZM304.843 39.522L303.567 38.158H308.187C309.448 38.158 310.394 37.8867 311.025 37.344C311.67 36.8013 311.993 36.046 311.993 35.078C311.993 34.0953 311.67 33.34 311.025 32.812C310.394 32.284 309.448 32.02 308.187 32.02H303.567L304.843 30.612V39.522ZM319.834 45V29.6H331.076V31.998H322.694V42.602H331.384V45H319.834ZM322.474 38.356V36.002H330.13V38.356H322.474ZM336.333 45V29.6H342.669C344.033 29.6 345.199 29.82 346.167 30.26C347.149 30.7 347.905 31.3307 348.433 32.152C348.961 32.9733 349.225 33.9487 349.225 35.078C349.225 36.2073 348.961 37.1827 348.433 38.004C347.905 38.8253 347.149 39.456 346.167 39.896C345.199 40.336 344.033 40.556 342.669 40.556H337.917L339.193 39.214V45H336.333ZM339.193 39.522L337.917 38.136H342.537C343.798 38.136 344.744 37.872 345.375 37.344C346.02 36.8013 346.343 36.046 346.343 35.078C346.343 34.0953 346.02 33.34 345.375 32.812C344.744 32.284 343.798 32.02 342.537 32.02H337.917L339.193 30.612V39.522ZM361.272 45.22C360.069 45.22 358.962 45.022 357.95 44.626C356.938 44.23 356.058 43.68 355.31 42.976C354.562 42.2573 353.982 41.4213 353.572 40.468C353.161 39.5 352.956 38.444 352.956 37.3C352.956 36.156 353.161 35.1073 353.572 34.154C353.982 33.186 354.562 32.35 355.31 31.646C356.058 30.9273 356.938 30.37 357.95 29.974C358.962 29.578 360.062 29.38 361.25 29.38C362.452 29.38 363.552 29.578 364.55 29.974C365.562 30.37 366.442 30.9273 367.19 31.646C367.938 32.35 368.517 33.186 368.928 34.154C369.338 35.1073 369.544 36.156 369.544 37.3C369.544 38.444 369.338 39.5 368.928 40.468C368.517 41.436 367.938 42.272 367.19 42.976C366.442 43.68 365.562 44.23 364.55 44.626C363.552 45.022 362.46 45.22 361.272 45.22ZM361.25 42.712C362.027 42.712 362.746 42.58 363.406 42.316C364.066 42.052 364.638 41.678 365.122 41.194C365.606 40.6953 365.98 40.1233 366.244 39.478C366.522 38.818 366.662 38.092 366.662 37.3C366.662 36.508 366.522 35.7893 366.244 35.144C365.98 34.484 365.606 33.912 365.122 33.428C364.638 32.9293 364.066 32.548 363.406 32.284C362.746 32.02 362.027 31.888 361.25 31.888C360.472 31.888 359.754 32.02 359.094 32.284C358.448 32.548 357.876 32.9293 357.378 33.428C356.894 33.912 356.512 34.484 356.234 35.144C355.97 35.7893 355.838 36.508 355.838 37.3C355.838 38.0773 355.97 38.796 356.234 39.456C356.512 40.116 356.894 40.6953 357.378 41.194C357.862 41.678 358.434 42.052 359.094 42.316C359.754 42.58 360.472 42.712 361.25 42.712ZM380.957 45.22C378.845 45.22 377.188 44.626 375.985 43.438C374.797 42.25 374.203 40.534 374.203 38.29V29.6H377.063V38.18C377.063 39.764 377.4 40.9153 378.075 41.634C378.764 42.3527 379.732 42.712 380.979 42.712C382.226 42.712 383.186 42.3527 383.861 41.634C384.536 40.9153 384.873 39.764 384.873 38.18V29.6H387.689V38.29C387.689 40.534 387.088 42.25 385.885 43.438C384.697 44.626 383.054 45.22 380.957 45.22ZM398.228 45.22C397.026 45.22 395.874 45.0513 394.774 44.714C393.674 44.362 392.802 43.9147 392.156 43.372L393.146 41.15C393.762 41.634 394.525 42.0373 395.434 42.36C396.344 42.6827 397.275 42.844 398.228 42.844C399.035 42.844 399.688 42.756 400.186 42.58C400.685 42.404 401.052 42.1693 401.286 41.876C401.521 41.568 401.638 41.2233 401.638 40.842C401.638 40.3727 401.47 39.9987 401.132 39.72C400.795 39.4267 400.355 39.1993 399.812 39.038C399.284 38.862 398.69 38.7007 398.03 38.554C397.385 38.4073 396.732 38.2387 396.072 38.048C395.427 37.8427 394.833 37.586 394.29 37.278C393.762 36.9553 393.33 36.53 392.992 36.002C392.655 35.474 392.486 34.7993 392.486 33.978C392.486 33.142 392.706 32.3793 393.146 31.69C393.601 30.986 394.283 30.4287 395.192 30.018C396.116 29.5927 397.282 29.38 398.69 29.38C399.614 29.38 400.531 29.4973 401.44 29.732C402.35 29.9667 403.142 30.304 403.816 30.744L402.914 32.966C402.225 32.5553 401.514 32.2547 400.78 32.064C400.047 31.8587 399.343 31.756 398.668 31.756C397.876 31.756 397.231 31.8513 396.732 32.042C396.248 32.2327 395.889 32.482 395.654 32.79C395.434 33.098 395.324 33.45 395.324 33.846C395.324 34.3153 395.486 34.6967 395.808 34.99C396.146 35.2687 396.578 35.4887 397.106 35.65C397.649 35.8113 398.25 35.9727 398.91 36.134C399.57 36.2807 400.223 36.4493 400.868 36.64C401.528 36.8307 402.122 37.08 402.65 37.388C403.193 37.696 403.626 38.114 403.948 38.642C404.286 39.17 404.454 39.8373 404.454 40.644C404.454 41.4653 404.227 42.228 403.772 42.932C403.332 43.6213 402.65 44.1787 401.726 44.604C400.802 45.0147 399.636 45.22 398.228 45.22ZM416.266 45.22C415.064 45.22 413.956 45.022 412.944 44.626C411.932 44.23 411.052 43.68 410.304 42.976C409.556 42.2573 408.977 41.4213 408.566 40.468C408.156 39.5 407.95 38.444 407.95 37.3C407.95 36.156 408.156 35.1073 408.566 34.154C408.977 33.186 409.556 32.35 410.304 31.646C411.052 30.9273 411.932 30.37 412.944 29.974C413.956 29.578 415.056 29.38 416.244 29.38C417.447 29.38 418.547 29.578 419.544 29.974C420.556 30.37 421.436 30.9273 422.184 31.646C422.932 32.35 423.512 33.186 423.922 34.154C424.333 35.1073 424.538 36.156 424.538 37.3C424.538 38.444 424.333 39.5 423.922 40.468C423.512 41.436 422.932 42.272 422.184 42.976C421.436 43.68 420.556 44.23 419.544 44.626C418.547 45.022 417.454 45.22 416.266 45.22ZM416.244 42.712C417.022 42.712 417.74 42.58 418.4 42.316C419.06 42.052 419.632 41.678 420.116 41.194C420.6 40.6953 420.974 40.1233 421.238 39.478C421.517 38.818 421.656 38.092 421.656 37.3C421.656 36.508 421.517 35.7893 421.238 35.144C420.974 34.484 420.6 33.912 420.116 33.428C419.632 32.9293 419.06 32.548 418.4 32.284C417.74 32.02 417.022 31.888 416.244 31.888C415.467 31.888 414.748 32.02 414.088 32.284C413.443 32.548 412.871 32.9293 412.372 33.428C411.888 33.912 411.507 34.484 411.228 35.144C410.964 35.7893 410.832 36.508 410.832 37.3C410.832 38.0773 410.964 38.796 411.228 39.456C411.507 40.116 411.888 40.6953 412.372 41.194C412.856 41.678 413.428 42.052 414.088 42.316C414.748 42.58 415.467 42.712 416.244 42.712Z" fill="#FEF9F5" fill-opacity="0.8"/>
<path d="M7.28716 76.8305C5.788 73.9445 3.49173 71.2447 1.96922 70.5781C1.42726 70.3412 0.836945 70.1907 0.656021 70.2431C-0.409569 70.5531 -0.126907 79.5162 1.14297 85.6673C2.49203 92.2041 6.03397 100.871 9.80103 106.852C18.3707 120.462 32.4401 130.32 50.836 135.606C57.4304 137.501 66.3744 138.854 72.3052 138.854H75.3435V137.888C75.3435 134.44 73.0806 128.116 70.3358 123.89C67.4 119.373 58.6002 112.522 58.6002 112.522C58.6002 112.522 51.3445 108.263 43.9755 105.286C33.5915 101.092 32.3041 100.486 25.4562 96.5797C22.668 94.9887 21.3156 94.6587 20.5836 95.3885C19.9607 96.0086 20.1141 96.8898 21.1947 98.9121C22.8064 101.926 26.1708 105.898 29.2983 108.478C30.8934 109.794 35.335 112.931 39.1687 115.45C43.0025 117.969 45.9808 120.083 45.7865 120.147C45.0978 120.376 39.6715 118.482 36.1121 116.77C30.5065 114.075 25.0635 109.93 21.5024 105.645C17.1601 100.417 14.2693 94.9579 10.8416 85.5036C9.63425 82.1737 8.03423 78.2702 7.28716 76.8305Z" fill="#FEF9F5"/>
<path d="M71.2919 1.86204C72.2074 1.30512 73.7582 0.630994 74.7388 0.364171C78.0931 -0.549345 80.0342 0.0965164 86.0975 4.1396C98.0257 12.0928 149.241 48.419 149.241 48.9252C149.241 49.0341 146.047 49.1388 142.144 49.1571L135.047 49.1904L124.826 42.3253C108.118 31.1037 79.5055 12.2839 77.6429 11.2906C76.7657 10.8218 75.9769 11.3206 45.5662 31.5642C32.1522 40.4941 20.7026 48.0948 20.1231 48.4547C19.1667 49.049 18.4105 49.1172 11.9003 49.1978C7.22521 49.2544 4.76887 49.1712 4.84141 48.9584C4.95814 48.616 9.283 45.4922 35.6491 26.704C52.0772 14.9979 68.3745 3.6392 71.2919 1.86204Z" fill="#FEF9F5"/>
<path d="M20.279 56.9289C24.232 51.1801 31.797 47.0871 39.6804 46.4313C53.6256 45.2717 66.9303 51.3755 74.0993 62.2229C76.3405 65.6143 76.5222 66.2768 74.9631 65.3666C73.1321 64.2985 68.9431 63.0683 66.4434 62.8655C61.7642 62.4856 57.0808 64.2819 53.5414 67.8138C48.8438 72.5019 47.6873 79.5307 50.4463 86.6286C52.3415 91.507 55.2956 95.5768 62.382 103.072C69.3575 110.45 71.1718 112.493 72.8361 114.845C74.9931 117.891 75.4825 118.707 75.1515 118.707C74.9881 118.707 72.8636 116.903 70.4297 114.697C58.1022 103.527 53.2537 100.661 37.6193 95.3058C24.754 90.8986 21.6006 88.8803 18.8374 83.2879C16.8696 79.3063 16.1526 76.0587 16.1417 71.0846C16.1301 65.2469 17.2907 61.2745 20.279 56.9289Z" fill="#FEF9F5"/>
<path d="M89.4501 52.9373C93.7308 50.0588 100.271 47.5094 105.413 46.7148C108.671 46.2119 116.187 46.541 119.201 47.3199C126.946 49.319 133.458 54.7868 136.247 61.6311C140.018 70.8827 137.561 83.1624 130.65 89.5936C126.9 93.0839 123 95.1845 112.668 99.2807C103.363 102.971 97.4112 105.746 93.1013 108.407C90.1747 110.214 83.3701 115.181 80.4877 117.616C79.779 118.214 79.1462 118.65 79.0803 118.584C78.8702 118.375 82.4763 113.377 84.4557 111.137C85.5097 109.944 88.6614 106.509 91.4604 103.504C101.875 92.3225 105.253 86.3459 105.246 79.1101C105.242 74.3406 103.762 70.7397 100.488 67.5262C97.5287 64.6227 93.0846 62.7558 89.1016 62.7433C86.7995 62.7358 83.0241 63.6177 80.6712 64.7125C79.5222 65.2469 78.5225 65.6842 78.4483 65.6842C78.1665 65.6842 79.7832 62.8156 81.1231 60.9379C82.8982 58.45 86.7395 54.7602 89.4501 52.9373Z" fill="#FEF9F5"/>
<path d="M146.713 76.9764C148.212 74.0903 150.508 71.3905 152.031 70.7239C152.573 70.487 153.163 70.3365 153.344 70.3889C154.41 70.699 154.127 79.6621 152.857 85.8131C151.508 92.3499 147.966 101.016 144.199 106.998C135.63 120.607 121.56 130.466 103.164 135.752C96.5698 137.647 87.6258 139 81.6951 139H78.6567V138.034C78.6567 134.586 80.9196 128.261 83.6645 124.036C86.6003 119.519 89.9754 116.249 95.4 112.668C99.4439 109.998 102.656 108.408 110.025 105.432C120.409 101.237 121.696 100.632 128.544 96.7255C131.332 95.1346 132.685 94.8046 133.417 95.5344C134.04 96.1545 133.886 97.0356 132.805 99.058C131.194 102.072 127.829 106.044 124.702 108.624C123.107 109.94 118.665 113.077 114.832 115.596C110.998 118.115 108.019 120.228 108.214 120.292C108.902 120.522 114.329 118.628 117.888 116.916C123.494 114.221 128.937 110.076 132.498 105.791C136.84 100.563 139.731 95.1037 143.159 85.6494C144.366 82.3195 145.966 78.416 146.713 76.9764Z" fill="#FEF9F5"/>
</svg>
