<svg width="483" height="139" viewBox="0 0 483 139" fill="none" xmlns="http://www.w3.org/2000/svg">
<path d="M456.706 55.9287V81.3393C457.884 78.2593 459.515 76.1304 461.598 74.9527C463.727 73.775 465.946 73.1862 468.257 73.1862C469.978 73.1862 471.405 73.4127 472.537 73.8656C473.715 74.3186 474.688 74.9527 475.458 75.768C476.319 76.6739 476.931 77.8063 477.293 79.1652C477.655 80.524 477.836 82.3585 477.836 84.6685V102.809C477.836 104.712 478.221 106.003 478.992 106.682C479.807 107.361 481.143 107.701 483 107.701V109.128C482.23 109.083 481.052 109.037 479.467 108.992C477.882 108.901 476.342 108.856 474.847 108.856C473.352 108.856 471.88 108.901 470.431 108.992C469.027 109.037 467.962 109.083 467.237 109.128V107.701C468.868 107.701 470.023 107.361 470.702 106.682C471.382 106.003 471.722 104.712 471.722 102.809V83.1738C471.722 81.7696 471.608 80.4787 471.382 79.3011C471.155 78.1234 470.635 77.1722 469.819 76.4475C469.049 75.7227 467.849 75.3604 466.218 75.3604C464.361 75.3604 462.708 75.8813 461.258 76.9231C459.854 77.9648 458.745 79.4143 457.929 81.2714C457.114 83.1285 456.706 85.2574 456.706 87.658V102.809C456.706 104.712 457.046 106.003 457.725 106.682C458.405 107.361 459.56 107.701 461.19 107.701V109.128C460.466 109.083 459.379 109.037 457.929 108.992C456.525 108.901 455.076 108.856 453.581 108.856C452.086 108.856 450.546 108.901 448.961 108.992C447.375 109.037 446.198 109.083 445.428 109.128V107.701C447.285 107.701 448.598 107.361 449.368 106.682C450.184 106.003 450.591 104.712 450.591 102.809V64.0819C450.591 62.0436 450.229 60.5488 449.504 59.5976C448.78 58.6011 447.421 58.1029 445.428 58.1029V56.6761C446.877 56.812 448.281 56.8799 449.64 56.8799C450.954 56.8799 452.199 56.812 453.377 56.6761C454.6 56.4949 455.71 56.2458 456.706 55.9287Z" fill="#FEF9F5"/>
<path d="M421.848 109.603C419.991 109.603 418.383 109.264 417.024 108.584C415.666 107.86 414.624 106.863 413.899 105.595C413.22 104.327 412.88 102.854 412.88 101.178C412.88 99.1855 413.333 97.5549 414.239 96.2866C415.19 95.0183 416.39 93.9992 417.84 93.2292C419.289 92.4592 420.807 91.825 422.392 91.3268C424.023 90.7832 425.563 90.285 427.012 89.832C428.461 89.3338 429.639 88.7676 430.545 88.1335C431.496 87.4993 431.972 86.6614 431.972 85.6196V81.4071C431.972 79.5047 431.677 78.0553 431.089 77.0588C430.545 76.0623 429.798 75.4055 428.846 75.0884C427.895 74.7261 426.831 74.5449 425.653 74.5449C424.521 74.5449 423.298 74.7034 421.984 75.0205C420.716 75.3376 419.697 75.9943 418.927 76.9908C419.787 77.172 420.535 77.625 421.169 78.3497C421.803 79.0744 422.12 80.003 422.12 81.1353C422.12 82.2677 421.758 83.1736 421.033 83.8531C420.308 84.4872 419.38 84.8043 418.247 84.8043C416.934 84.8043 415.96 84.3966 415.326 83.5813C414.737 82.7207 414.443 81.7695 414.443 80.7277C414.443 79.55 414.737 78.5988 415.326 77.8741C415.915 77.1494 416.662 76.4699 417.568 75.8358C418.61 75.1111 419.946 74.4996 421.577 74.0014C423.252 73.4578 425.132 73.186 427.216 73.186C429.073 73.186 430.658 73.4125 431.972 73.8655C433.285 74.2731 434.372 74.8846 435.233 75.6999C436.411 76.787 437.181 78.1232 437.543 79.7086C437.906 81.2486 438.087 83.1057 438.087 85.2799V104.168C438.087 105.3 438.245 106.116 438.562 106.614C438.925 107.112 439.468 107.361 440.193 107.361C440.691 107.361 441.167 107.248 441.62 107.022C442.073 106.795 442.616 106.433 443.25 105.934L443.998 107.09C443.047 107.814 442.141 108.426 441.28 108.924C440.419 109.377 439.264 109.603 437.815 109.603C436.501 109.603 435.414 109.377 434.554 108.924C433.693 108.471 433.036 107.814 432.583 106.954C432.176 106.048 431.972 104.915 431.972 103.556C430.749 105.595 429.277 107.112 427.556 108.109C425.88 109.105 423.977 109.603 421.848 109.603ZM424.294 106.886C425.789 106.886 427.171 106.455 428.439 105.595C429.752 104.734 430.93 103.443 431.972 101.722V88.4052C431.428 89.1753 430.636 89.832 429.594 90.3756C428.552 90.8738 427.42 91.3947 426.197 91.9383C424.974 92.4365 423.796 93.048 422.664 93.7727C421.577 94.4522 420.671 95.3581 419.946 96.4904C419.221 97.6228 418.859 99.0949 418.859 100.907C418.859 102.719 419.334 104.168 420.286 105.255C421.282 106.342 422.618 106.886 424.294 106.886Z" fill="#FEF9F5"/>
<path d="M374.309 73.186C375.894 73.186 377.276 73.4125 378.454 73.8655C379.631 74.3184 380.605 74.9526 381.375 75.7679C382.236 76.6738 382.825 77.8514 383.142 79.3009C383.459 80.7503 383.617 82.5395 383.617 84.6684V102.809C383.617 104.712 384.002 106.002 384.772 106.682C385.588 107.361 386.924 107.701 388.781 107.701V109.128C388.011 109.083 386.833 109.037 385.248 108.992C383.663 108.901 382.123 108.856 380.628 108.856C379.133 108.856 377.661 108.901 376.211 108.992C374.807 109.037 373.743 109.083 373.018 109.128V107.701C374.649 107.701 375.804 107.361 376.483 106.682C377.163 106.002 377.502 104.712 377.502 102.809V83.1736C377.502 81.7695 377.412 80.4786 377.231 79.3009C377.049 78.1232 376.596 77.172 375.872 76.4473C375.147 75.7226 373.969 75.3602 372.339 75.3602C370.572 75.3602 368.987 75.9038 367.583 76.9908C366.224 78.0779 365.137 79.5727 364.321 81.4751C363.551 83.3322 363.166 85.4158 363.166 87.7258V102.809C363.166 104.712 363.506 106.002 364.186 106.682C364.865 107.361 366.02 107.701 367.651 107.701V109.128C366.926 109.083 365.839 109.037 364.389 108.992C362.985 108.901 361.536 108.856 360.041 108.856C358.546 108.856 357.006 108.901 355.421 108.992C353.836 109.037 352.658 109.083 351.888 109.128V107.701C353.745 107.701 355.059 107.361 355.829 106.682C356.644 106.002 357.052 104.712 357.052 102.809V81.543C357.052 79.5047 356.689 78.01 355.965 77.0588C355.24 76.0623 353.881 75.564 351.888 75.564V74.1372C353.337 74.2731 354.742 74.3411 356.1 74.3411C357.414 74.3411 358.66 74.2731 359.837 74.1372C361.06 73.9561 362.17 73.7069 363.166 73.3899V81.4071C364.344 78.4629 365.952 76.3567 367.99 75.0884C370.029 73.8202 372.135 73.186 374.309 73.186ZM394.76 73.186C396.345 73.186 397.727 73.4125 398.904 73.8655C400.082 74.3184 401.056 74.9526 401.826 75.7679C402.687 76.6738 403.275 77.8514 403.592 79.3009C403.91 80.7503 404.068 82.5395 404.068 84.6684V102.809C404.068 104.712 404.453 106.002 405.223 106.682C406.038 107.361 407.375 107.701 409.232 107.701V109.128C408.462 109.083 407.284 109.037 405.699 108.992C404.113 108.901 402.573 108.856 401.079 108.856C399.584 108.856 398.112 108.901 396.662 108.992C395.258 109.037 394.194 109.083 393.469 109.128V107.701C395.1 107.701 396.255 107.361 396.934 106.682C397.613 106.002 397.953 104.712 397.953 102.809V83.1736C397.953 81.7695 397.863 80.4786 397.681 79.3009C397.5 78.1232 397.047 77.172 396.323 76.4473C395.598 75.7226 394.42 75.3602 392.79 75.3602C391.023 75.3602 389.438 75.9038 388.034 76.9908C386.675 78.0779 385.588 79.55 384.772 81.4071C384.002 83.2642 383.617 85.3478 383.617 87.6579L383.413 81.3392C384.636 78.2138 386.29 76.0849 388.373 74.9526C390.457 73.7749 392.586 73.186 394.76 73.186Z" fill="#FEF9F5"/>
<path d="M313.997 73.186C315.582 73.186 316.963 73.4125 318.141 73.8655C319.319 74.3184 320.293 74.9526 321.063 75.7679C321.923 76.6738 322.512 77.8514 322.829 79.3009C323.146 80.7503 323.305 82.5395 323.305 84.6684V102.809C323.305 104.712 323.69 106.002 324.46 106.682C325.275 107.361 326.611 107.701 328.468 107.701V109.128C327.698 109.083 326.521 109.037 324.935 108.992C323.35 108.901 321.81 108.856 320.315 108.856C318.821 108.856 317.348 108.901 315.899 108.992C314.495 109.037 313.43 109.083 312.706 109.128V107.701C314.336 107.701 315.491 107.361 316.171 106.682C316.85 106.002 317.19 104.712 317.19 102.809V83.1736C317.19 81.7695 317.099 80.4786 316.918 79.3009C316.737 78.1232 316.284 77.172 315.559 76.4473C314.835 75.7226 313.657 75.3602 312.026 75.3602C310.26 75.3602 308.674 75.9038 307.27 76.9908C305.911 78.0779 304.824 79.5727 304.009 81.4751C303.239 83.3322 302.854 85.4158 302.854 87.7258V102.809C302.854 104.712 303.194 106.002 303.873 106.682C304.553 107.361 305.708 107.701 307.338 107.701V109.128C306.613 109.083 305.526 109.037 304.077 108.992C302.673 108.901 301.223 108.856 299.729 108.856C298.234 108.856 296.694 108.901 295.108 108.992C293.523 109.037 292.345 109.083 291.575 109.128V107.701C293.433 107.701 294.746 107.361 295.516 106.682C296.331 106.002 296.739 104.712 296.739 102.809V81.543C296.739 79.5047 296.377 78.01 295.652 77.0588C294.927 76.0623 293.568 75.564 291.575 75.564V74.1372C293.025 74.2731 294.429 74.3411 295.788 74.3411C297.101 74.3411 298.347 74.2731 299.525 74.1372C300.748 73.9561 301.857 73.7069 302.854 73.3899V81.4071C304.032 78.4629 305.64 76.3567 307.678 75.0884C309.716 73.8202 311.822 73.186 313.997 73.186ZM334.447 73.186C336.033 73.186 337.414 73.4125 338.592 73.8655C339.77 74.3184 340.743 74.9526 341.513 75.7679C342.374 76.6738 342.963 77.8514 343.28 79.3009C343.597 80.7503 343.756 82.5395 343.756 84.6684V102.809C343.756 104.712 344.141 106.002 344.911 106.682C345.726 107.361 347.062 107.701 348.919 107.701V109.128C348.149 109.083 346.972 109.037 345.386 108.992C343.801 108.901 342.261 108.856 340.766 108.856C339.271 108.856 337.799 108.901 336.35 108.992C334.946 109.037 333.881 109.083 333.156 109.128V107.701C334.787 107.701 335.942 107.361 336.622 106.682C337.301 106.002 337.641 104.712 337.641 102.809V83.1736C337.641 81.7695 337.55 80.4786 337.369 79.3009C337.188 78.1232 336.735 77.172 336.01 76.4473C335.285 75.7226 334.108 75.3602 332.477 75.3602C330.711 75.3602 329.125 75.9038 327.721 76.9908C326.362 78.0779 325.275 79.55 324.46 81.4071C323.69 83.2642 323.305 85.3478 323.305 87.6579L323.101 81.3392C324.324 78.2138 325.977 76.0849 328.061 74.9526C330.144 73.7749 332.273 73.186 334.447 73.186Z" fill="#FEF9F5"/>
<path d="M267.384 109.603C265.527 109.603 263.919 109.264 262.561 108.584C261.202 107.86 260.16 106.863 259.435 105.595C258.756 104.327 258.416 102.854 258.416 101.178C258.416 99.1855 258.869 97.5549 259.775 96.2866C260.726 95.0183 261.926 93.9992 263.376 93.2292C264.825 92.4592 266.343 91.825 267.928 91.3268C269.559 90.7832 271.099 90.285 272.548 89.832C273.998 89.3338 275.175 88.7676 276.081 88.1335C277.032 87.4993 277.508 86.6614 277.508 85.6196V81.4071C277.508 79.5047 277.214 78.0553 276.625 77.0588C276.081 76.0623 275.334 75.4055 274.383 75.0884C273.431 74.7261 272.367 74.5449 271.189 74.5449C270.057 74.5449 268.834 74.7034 267.52 75.0205C266.252 75.3376 265.233 75.9943 264.463 76.9908C265.324 77.172 266.071 77.625 266.705 78.3497C267.339 79.0744 267.656 80.003 267.656 81.1353C267.656 82.2677 267.294 83.1736 266.569 83.8531C265.844 84.4872 264.916 84.8043 263.784 84.8043C262.47 84.8043 261.496 84.3966 260.862 83.5813C260.273 82.7207 259.979 81.7695 259.979 80.7277C259.979 79.55 260.273 78.5988 260.862 77.8741C261.451 77.1494 262.198 76.4699 263.104 75.8358C264.146 75.1111 265.482 74.4996 267.113 74.0014C268.789 73.4578 270.668 73.186 272.752 73.186C274.609 73.186 276.194 73.4125 277.508 73.8655C278.822 74.2731 279.909 74.8846 280.769 75.6999C281.947 76.787 282.717 78.1232 283.079 79.7086C283.442 81.2486 283.623 83.1057 283.623 85.2799V104.168C283.623 105.3 283.781 106.116 284.098 106.614C284.461 107.112 285.004 107.361 285.729 107.361C286.227 107.361 286.703 107.248 287.156 107.022C287.609 106.795 288.152 106.433 288.786 105.934L289.534 107.09C288.583 107.814 287.677 108.426 286.816 108.924C285.956 109.377 284.801 109.603 283.351 109.603C282.037 109.603 280.95 109.377 280.09 108.924C279.229 108.471 278.572 107.814 278.119 106.954C277.712 106.048 277.508 104.915 277.508 103.556C276.285 105.595 274.813 107.112 273.092 108.109C271.416 109.105 269.513 109.603 267.384 109.603ZM269.83 106.886C271.325 106.886 272.707 106.455 273.975 105.595C275.289 104.734 276.466 103.443 277.508 101.722V88.4052C276.964 89.1753 276.172 89.832 275.13 90.3756C274.088 90.8738 272.956 91.3947 271.733 91.9383C270.51 92.4365 269.332 93.048 268.2 93.7727C267.113 94.4522 266.207 95.3581 265.482 96.4904C264.757 97.6228 264.395 99.0949 264.395 100.907C264.395 102.719 264.871 104.168 265.822 105.255C266.818 106.342 268.154 106.886 269.83 106.886Z" fill="#FEF9F5"/>
<path d="M228.461 55.9287V81.3393C229.639 78.2593 231.269 76.1304 233.353 74.9527C235.482 73.775 237.701 73.1862 240.011 73.1862C241.732 73.1862 243.159 73.4127 244.292 73.8656C245.469 74.3186 246.443 74.9527 247.213 75.768C248.074 76.6739 248.685 77.8063 249.048 79.1652C249.41 80.524 249.591 82.3585 249.591 84.6685V102.809C249.591 104.712 249.976 106.003 250.746 106.682C251.561 107.361 252.898 107.701 254.755 107.701V109.128C253.985 109.083 252.807 109.037 251.222 108.992C249.636 108.901 248.096 108.856 246.602 108.856C245.107 108.856 243.635 108.901 242.185 108.992C240.781 109.037 239.717 109.083 238.992 109.128V107.701C240.623 107.701 241.778 107.361 242.457 106.682C243.137 106.003 243.476 104.712 243.476 102.809V83.1738C243.476 81.7696 243.363 80.4787 243.137 79.3011C242.91 78.1234 242.389 77.1722 241.574 76.4475C240.804 75.7227 239.604 75.3604 237.973 75.3604C236.116 75.3604 234.463 75.8813 233.013 76.9231C231.609 77.9648 230.499 79.4143 229.684 81.2714C228.869 83.1285 228.461 85.2574 228.461 87.658V102.809C228.461 104.712 228.801 106.003 229.48 106.682C230.159 107.361 231.314 107.701 232.945 107.701V109.128C232.22 109.083 231.133 109.037 229.684 108.992C228.28 108.901 226.83 108.856 225.336 108.856C223.841 108.856 222.301 108.901 220.715 108.992C219.13 109.037 217.952 109.083 217.182 109.128V107.701C219.039 107.701 220.353 107.361 221.123 106.682C221.938 106.003 222.346 104.712 222.346 102.809V64.0819C222.346 62.0436 221.984 60.5488 221.259 59.5976C220.534 58.6011 219.175 58.1029 217.182 58.1029V56.6761C218.632 56.812 220.036 56.8799 221.395 56.8799C222.708 56.8799 223.954 56.812 225.132 56.6761C226.355 56.4949 227.464 56.2458 228.461 55.9287Z" fill="#FEF9F5"/>
<path d="M194.494 55.1348C196.997 55.1348 198.899 55.4351 200.201 56.0359C201.502 56.5866 202.654 57.2124 203.655 57.9133C204.256 58.2637 204.731 58.5391 205.082 58.7393C205.482 58.8895 205.858 58.9646 206.208 58.9646C206.709 58.9646 207.059 58.6892 207.26 58.1386C207.51 57.5879 207.71 56.7618 207.86 55.6604H209.588C209.538 56.5115 209.462 57.5378 209.362 58.7393C209.312 59.8908 209.262 61.4427 209.212 63.3952C209.212 65.2976 209.212 67.8258 209.212 70.9798H207.485C207.335 68.5767 206.809 66.2738 205.908 64.071C205.007 61.8683 203.68 60.066 201.928 58.6642C200.226 57.2624 197.973 56.5616 195.169 56.5616C192.516 56.5616 190.313 57.3626 188.561 58.9646C186.859 60.5666 186.008 62.6693 186.008 65.2726C186.008 67.5254 186.584 69.4278 187.735 70.9798C188.886 72.4817 190.413 73.8584 192.316 75.11C194.268 76.3115 196.371 77.6131 198.624 79.0149C201.227 80.6169 203.53 82.2189 205.532 83.821C207.585 85.3729 209.187 87.1001 210.339 89.0025C211.54 90.9049 212.141 93.2078 212.141 95.9112C212.141 99.1153 211.415 101.769 209.963 103.871C208.511 105.974 206.584 107.551 204.181 108.602C201.778 109.654 199.124 110.179 196.221 110.179C193.567 110.179 191.465 109.879 189.913 109.278C188.361 108.677 187.034 108.052 185.933 107.401C184.831 106.7 183.98 106.349 183.38 106.349C182.879 106.349 182.503 106.625 182.253 107.175C182.053 107.726 181.878 108.552 181.727 109.654H180C180.1 108.602 180.15 107.376 180.15 105.974C180.2 104.522 180.226 102.645 180.226 100.342C180.276 98.0389 180.301 95.1352 180.301 91.6308H182.028C182.228 94.6346 182.779 97.4381 183.68 100.041C184.631 102.645 186.058 104.747 187.96 106.349C189.913 107.901 192.491 108.677 195.695 108.677C197.347 108.677 198.899 108.352 200.351 107.701C201.853 107 203.079 105.924 204.031 104.472C204.982 102.97 205.457 101.043 205.457 98.6897C205.457 96.6371 204.957 94.8599 203.955 93.358C203.004 91.806 201.653 90.3792 199.9 89.0776C198.148 87.7259 196.096 86.3491 193.743 84.9474C191.39 83.4955 189.187 82.0187 187.134 80.5168C185.082 79.0149 183.43 77.2877 182.178 75.3353C180.976 73.3327 180.376 70.9297 180.376 68.1262C180.376 65.1724 181.027 62.7444 182.328 60.842C183.68 58.8895 185.432 57.4627 187.585 56.5616C189.738 55.6104 192.04 55.1348 194.494 55.1348Z" fill="#FEF9F5"/>
<path d="M201.541 49.132C200.382 49.132 199.312 48.9413 198.329 48.56C197.346 48.164 196.496 47.614 195.777 46.91C195.058 46.206 194.494 45.3773 194.083 44.424C193.687 43.4707 193.489 42.4293 193.489 41.3C193.489 40.1707 193.687 39.1293 194.083 38.176C194.494 37.2227 195.058 36.394 195.777 35.69C196.51 34.986 197.368 34.4433 198.351 34.062C199.334 33.666 200.404 33.468 201.563 33.468C202.678 33.468 203.726 33.6587 204.709 34.04C205.692 34.4067 206.52 34.964 207.195 35.712L206.161 36.746C205.53 36.1007 204.834 35.6387 204.071 35.36C203.308 35.0667 202.487 34.92 201.607 34.92C200.683 34.92 199.825 35.0813 199.033 35.404C198.241 35.712 197.552 36.1593 196.965 36.746C196.378 37.318 195.916 37.9927 195.579 38.77C195.256 39.5327 195.095 40.376 195.095 41.3C195.095 42.224 195.256 43.0747 195.579 43.852C195.916 44.6147 196.378 45.2893 196.965 45.876C197.552 46.448 198.241 46.8953 199.033 47.218C199.825 47.526 200.683 47.68 201.607 47.68C202.487 47.68 203.308 47.5333 204.071 47.24C204.834 46.9467 205.53 46.4773 206.161 45.832L207.195 46.866C206.52 47.614 205.692 48.1787 204.709 48.56C203.726 48.9413 202.67 49.132 201.541 49.132ZM212.211 49V33.6H213.839V47.592H222.463V49H212.211ZM226.926 49V33.6H228.554V49H226.926ZM226.31 32.346L229.324 29.618H231.414L227.85 32.346H226.31ZM235.324 49V33.6H236.666L247.292 46.976H246.588V33.6H248.194V49H246.852L236.248 35.624H236.952V49H235.324ZM254.981 49V33.6H256.609V49H254.981ZM270.067 49.132C268.909 49.132 267.838 48.9413 266.855 48.56C265.873 48.164 265.022 47.614 264.303 46.91C263.585 46.206 263.02 45.3773 262.609 44.424C262.213 43.4707 262.015 42.4293 262.015 41.3C262.015 40.1707 262.213 39.1293 262.609 38.176C263.02 37.2227 263.585 36.394 264.303 35.69C265.037 34.986 265.895 34.4433 266.877 34.062C267.86 33.666 268.931 33.468 270.089 33.468C271.204 33.468 272.253 33.6587 273.235 34.04C274.218 34.4067 275.047 34.964 275.721 35.712L274.687 36.746C274.057 36.1007 273.36 35.6387 272.597 35.36C271.835 35.0667 271.013 34.92 270.133 34.92C269.209 34.92 268.351 35.0813 267.559 35.404C266.767 35.712 266.078 36.1593 265.491 36.746C264.905 37.318 264.443 37.9927 264.105 38.77C263.783 39.5327 263.621 40.376 263.621 41.3C263.621 42.224 263.783 43.0747 264.105 43.852C264.443 44.6147 264.905 45.2893 265.491 45.876C266.078 46.448 266.767 46.8953 267.559 47.218C268.351 47.526 269.209 47.68 270.133 47.68C271.013 47.68 271.835 47.5333 272.597 47.24C273.36 46.9467 274.057 46.4773 274.687 45.832L275.721 46.866C275.047 47.614 274.218 48.1787 273.235 48.56C272.253 48.9413 271.197 49.132 270.067 49.132ZM277.886 49L284.926 33.6H286.532L293.572 49H291.856L285.388 34.546H286.048L279.58 49H277.886ZM280.658 44.886L281.142 43.566H290.096L290.58 44.886H280.658ZM305.398 49V33.6H311.668C313.31 33.6 314.748 33.93 315.98 34.59C317.226 35.2353 318.194 36.1373 318.884 37.296C319.573 38.4547 319.918 39.7893 319.918 41.3C319.918 42.8107 319.573 44.1453 318.884 45.304C318.194 46.4627 317.226 47.372 315.98 48.032C314.748 48.6773 313.31 49 311.668 49H305.398ZM307.026 47.592H311.58C312.944 47.592 314.124 47.328 315.122 46.8C316.134 46.2573 316.918 45.5167 317.476 44.578C318.033 43.6247 318.312 42.532 318.312 41.3C318.312 40.0533 318.033 38.9607 317.476 38.022C316.918 37.0833 316.134 36.35 315.122 35.822C314.124 35.2793 312.944 35.008 311.58 35.008H307.026V47.592ZM325.334 49V33.6H335.894V35.008H326.962V47.592H336.224V49H325.334ZM326.786 41.872V40.486H334.926V41.872H326.786ZM349.328 49V33.6H355.092C357.043 33.6 358.575 34.0693 359.69 35.008C360.819 35.932 361.384 37.2227 361.384 38.88C361.384 39.9653 361.127 40.904 360.614 41.696C360.115 42.4733 359.397 43.0747 358.458 43.5C357.519 43.9107 356.397 44.116 355.092 44.116H350.23L350.956 43.368V49H349.328ZM359.844 49L355.884 43.412H357.644L361.626 49H359.844ZM350.956 43.5L350.23 42.73H355.048C356.588 42.73 357.754 42.3927 358.546 41.718C359.353 41.0433 359.756 40.0973 359.756 38.88C359.756 37.648 359.353 36.6947 358.546 36.02C357.754 35.3453 356.588 35.008 355.048 35.008H350.23L350.956 34.238V43.5ZM366.987 49V33.6H377.547V35.008H368.615V47.592H377.877V49H366.987ZM368.439 41.872V40.486H376.579V41.872H368.439ZM383.463 49V33.6H389.227C390.533 33.6 391.655 33.8127 392.593 34.238C393.532 34.6487 394.251 35.25 394.749 36.042C395.263 36.8193 395.519 37.7653 395.519 38.88C395.519 39.9653 395.263 40.904 394.749 41.696C394.251 42.4733 393.532 43.0747 392.593 43.5C391.655 43.9253 390.533 44.138 389.227 44.138H384.365L385.091 43.368V49H383.463ZM385.091 43.5L384.365 42.708H389.183C390.723 42.708 391.889 42.378 392.681 41.718C393.488 41.0433 393.891 40.0973 393.891 38.88C393.891 37.648 393.488 36.6947 392.681 36.02C391.889 35.3453 390.723 35.008 389.183 35.008H384.365L385.091 34.238V43.5ZM407.746 49.132C406.588 49.132 405.51 48.9413 404.512 48.56C403.53 48.164 402.672 47.614 401.938 46.91C401.22 46.1913 400.655 45.3627 400.244 44.424C399.848 43.4707 399.65 42.4293 399.65 41.3C399.65 40.1707 399.848 39.1367 400.244 38.198C400.655 37.2447 401.22 36.416 401.938 35.712C402.672 34.9933 403.53 34.4433 404.512 34.062C405.495 33.666 406.573 33.468 407.746 33.468C408.905 33.468 409.976 33.666 410.958 34.062C411.941 34.4433 412.792 34.986 413.51 35.69C414.244 36.394 414.808 37.2227 415.204 38.176C415.615 39.1293 415.82 40.1707 415.82 41.3C415.82 42.4293 415.615 43.4707 415.204 44.424C414.808 45.3773 414.244 46.206 413.51 46.91C412.792 47.614 411.941 48.164 410.958 48.56C409.976 48.9413 408.905 49.132 407.746 49.132ZM407.746 47.68C408.67 47.68 409.521 47.526 410.298 47.218C411.09 46.8953 411.772 46.448 412.344 45.876C412.931 45.2893 413.386 44.6147 413.708 43.852C414.031 43.0747 414.192 42.224 414.192 41.3C414.192 40.376 414.031 39.5327 413.708 38.77C413.386 37.9927 412.931 37.318 412.344 36.746C411.772 36.1593 411.09 35.712 410.298 35.404C409.521 35.0813 408.67 34.92 407.746 34.92C406.822 34.92 405.964 35.0813 405.172 35.404C404.38 35.712 403.691 36.1593 403.104 36.746C402.532 37.318 402.078 37.9927 401.74 38.77C401.418 39.5327 401.256 40.376 401.256 41.3C401.256 42.2093 401.418 43.0527 401.74 43.83C402.078 44.6073 402.532 45.2893 403.104 45.876C403.691 46.448 404.38 46.8953 405.172 47.218C405.964 47.526 406.822 47.68 407.746 47.68ZM427.433 49.132C425.468 49.132 423.921 48.5673 422.791 47.438C421.662 46.3087 421.097 44.6367 421.097 42.422V33.6H422.725V42.356C422.725 44.1747 423.136 45.5167 423.957 46.382C424.779 47.2473 425.937 47.68 427.433 47.68C428.944 47.68 430.11 47.2473 430.931 46.382C431.753 45.5167 432.163 44.1747 432.163 42.356V33.6H433.747V42.422C433.747 44.6367 433.183 46.3087 432.053 47.438C430.939 48.5673 429.399 49.132 427.433 49.132ZM444.659 49.132C443.515 49.132 442.415 48.9487 441.359 48.582C440.318 48.2007 439.511 47.7167 438.939 47.13L439.577 45.876C440.12 46.404 440.846 46.8513 441.755 47.218C442.679 47.57 443.647 47.746 444.659 47.746C445.627 47.746 446.412 47.6287 447.013 47.394C447.629 47.1447 448.077 46.8147 448.355 46.404C448.649 45.9933 448.795 45.5387 448.795 45.04C448.795 44.4387 448.619 43.9547 448.267 43.588C447.93 43.2213 447.483 42.9353 446.925 42.73C446.368 42.51 445.752 42.3193 445.077 42.158C444.403 41.9967 443.728 41.828 443.053 41.652C442.379 41.4613 441.755 41.212 441.183 40.904C440.626 40.596 440.171 40.1927 439.819 39.694C439.482 39.1807 439.313 38.5133 439.313 37.692C439.313 36.9293 439.511 36.2327 439.907 35.602C440.318 34.9567 440.941 34.4433 441.777 34.062C442.613 33.666 443.684 33.468 444.989 33.468C445.855 33.468 446.713 33.5927 447.563 33.842C448.414 34.0767 449.147 34.4067 449.763 34.832L449.213 36.13C448.553 35.69 447.849 35.3673 447.101 35.162C446.368 34.9567 445.657 34.854 444.967 34.854C444.043 34.854 443.281 34.9787 442.679 35.228C442.078 35.4773 441.631 35.8147 441.337 36.24C441.059 36.6507 440.919 37.12 440.919 37.648C440.919 38.2493 441.088 38.7333 441.425 39.1C441.777 39.4667 442.232 39.7527 442.789 39.958C443.361 40.1633 443.985 40.3467 444.659 40.508C445.334 40.6693 446.001 40.8453 446.661 41.036C447.336 41.2267 447.952 41.476 448.509 41.784C449.081 42.0773 449.536 42.4733 449.873 42.972C450.225 43.4707 450.401 44.1233 450.401 44.93C450.401 45.678 450.196 46.3747 449.785 47.02C449.375 47.6507 448.744 48.164 447.893 48.56C447.057 48.9413 445.979 49.132 444.659 49.132ZM462.441 49.132C461.282 49.132 460.204 48.9413 459.207 48.56C458.224 48.164 457.366 47.614 456.633 46.91C455.914 46.1913 455.349 45.3627 454.939 44.424C454.543 43.4707 454.345 42.4293 454.345 41.3C454.345 40.1707 454.543 39.1367 454.939 38.198C455.349 37.2447 455.914 36.416 456.633 35.712C457.366 34.9933 458.224 34.4433 459.207 34.062C460.189 33.666 461.267 33.468 462.441 33.468C463.599 33.468 464.67 33.666 465.653 34.062C466.635 34.4433 467.486 34.986 468.205 35.69C468.938 36.394 469.503 37.2227 469.899 38.176C470.309 39.1293 470.515 40.1707 470.515 41.3C470.515 42.4293 470.309 43.4707 469.899 44.424C469.503 45.3773 468.938 46.206 468.205 46.91C467.486 47.614 466.635 48.164 465.653 48.56C464.67 48.9413 463.599 49.132 462.441 49.132ZM462.441 47.68C463.365 47.68 464.215 47.526 464.993 47.218C465.785 46.8953 466.467 46.448 467.039 45.876C467.625 45.2893 468.08 44.6147 468.403 43.852C468.725 43.0747 468.887 42.224 468.887 41.3C468.887 40.376 468.725 39.5327 468.403 38.77C468.08 37.9927 467.625 37.318 467.039 36.746C466.467 36.1593 465.785 35.712 464.993 35.404C464.215 35.0813 463.365 34.92 462.441 34.92C461.517 34.92 460.659 35.0813 459.867 35.404C459.075 35.712 458.385 36.1593 457.799 36.746C457.227 37.318 456.772 37.9927 456.435 38.77C456.112 39.5327 455.951 40.376 455.951 41.3C455.951 42.2093 456.112 43.0527 456.435 43.83C456.772 44.6073 457.227 45.2893 457.799 45.876C458.385 46.448 459.075 46.8953 459.867 47.218C460.659 47.526 461.517 47.68 462.441 47.68Z" fill="#FEF9F5" fill-opacity="0.8"/>
<path d="M7.28716 76.8305C5.788 73.9445 3.49173 71.2447 1.96922 70.5781C1.42726 70.3412 0.836948 70.1907 0.65602 70.2431C-0.409566 70.5531 -0.126905 79.5162 1.14296 85.6673C2.49203 92.204 6.03397 100.871 9.80103 106.852C18.3707 120.462 32.4401 130.32 50.836 135.606C57.4304 137.501 66.3744 138.854 72.3052 138.854H75.3435V137.888C75.3435 134.44 73.0806 128.116 70.3358 123.89C67.4 119.373 58.6002 112.522 58.6002 112.522C58.6002 112.522 51.3445 108.263 43.9755 105.286C33.5915 101.092 32.3041 100.486 25.4562 96.5797C22.668 94.9887 21.3156 94.6587 20.5836 95.3885C19.9607 96.0086 20.1141 96.8898 21.1947 98.9121C22.8064 101.926 26.1708 105.898 29.2983 108.478C30.8934 109.794 35.335 112.931 39.1687 115.45C43.0025 117.969 45.9808 120.083 45.7865 120.147C45.0978 120.376 39.6715 118.482 36.1121 116.77C30.5065 114.075 25.0635 109.93 21.5024 105.645C17.1601 100.417 14.2693 94.9579 10.8416 85.5036C9.63425 82.1737 8.03423 78.2702 7.28716 76.8305Z" fill="#FEF9F5"/>
<path d="M71.2919 1.86204C72.2074 1.30512 73.7582 0.630994 74.7388 0.364171C78.0931 -0.549345 80.0342 0.0965164 86.0975 4.1396C98.0257 12.0928 149.241 48.419 149.241 48.9252C149.241 49.0341 146.047 49.1388 142.144 49.1571L135.047 49.1904L124.826 42.3253C108.118 31.1037 79.5055 12.2839 77.6429 11.2906C76.7657 10.8218 75.9769 11.3206 45.5662 31.5642C32.1522 40.4941 20.7026 48.0948 20.1231 48.4547C19.1667 49.049 18.4105 49.1172 11.9003 49.1978C7.22521 49.2544 4.76887 49.1712 4.84141 48.9584C4.95814 48.616 9.283 45.4922 35.6491 26.704C52.0772 14.9979 68.3745 3.6392 71.2919 1.86204Z" fill="#FEF9F5"/>
<path d="M20.279 56.9289C24.232 51.1801 31.797 47.0871 39.6804 46.4313C53.6256 45.2717 66.9303 51.3755 74.0993 62.2229C76.3405 65.6143 76.5222 66.2768 74.9631 65.3666C73.1321 64.2985 68.9431 63.0683 66.4434 62.8655C61.7642 62.4856 57.0808 64.2819 53.5413 67.8138C48.8438 72.5019 47.6873 79.5307 50.4463 86.6286C52.3415 91.507 55.2956 95.5768 62.382 103.072C69.3575 110.45 71.1718 112.493 72.8361 114.845C74.9931 117.891 75.4825 118.707 75.1515 118.707C74.9881 118.707 72.8636 116.903 70.4297 114.697C58.1022 103.527 53.2537 100.661 37.6193 95.3058C24.754 90.8986 21.6006 88.8803 18.8374 83.2879C16.8696 79.3063 16.1526 76.0587 16.1417 71.0846C16.1301 65.2469 17.2907 61.2745 20.279 56.9289Z" fill="#FEF9F5"/>
<path d="M89.4501 52.9373C93.7308 50.0588 100.271 47.5094 105.413 46.7148C108.671 46.2119 116.187 46.541 119.201 47.3199C126.946 49.319 133.458 54.7868 136.247 61.6311C140.018 70.8826 137.561 83.1624 130.65 89.5936C126.9 93.0839 123 95.1845 112.668 99.2807C103.363 102.971 97.4112 105.746 93.1013 108.407C90.1747 110.214 83.3701 115.181 80.4877 117.616C79.779 118.214 79.1462 118.65 79.0803 118.584C78.8702 118.375 82.4763 113.377 84.4557 111.137C85.5097 109.944 88.6614 106.509 91.4604 103.504C101.875 92.3225 105.253 86.3459 105.246 79.1101C105.242 74.3406 103.762 70.7397 100.488 67.5262C97.5287 64.6227 93.0846 62.7558 89.1016 62.7433C86.7995 62.7358 83.0241 63.6177 80.6712 64.7125C79.5222 65.2469 78.5225 65.6842 78.4483 65.6842C78.1665 65.6842 79.7832 62.8156 81.1231 60.9379C82.8982 58.45 86.7395 54.7602 89.4501 52.9373Z" fill="#FEF9F5"/>
<path d="M146.713 76.9764C148.212 74.0903 150.509 71.3905 152.031 70.7239C152.573 70.487 153.163 70.3365 153.344 70.3889C154.41 70.699 154.127 79.6621 152.857 85.8131C151.508 92.3499 147.966 101.016 144.199 106.998C135.63 120.607 121.56 130.466 103.164 135.752C96.5698 137.647 87.6258 139 81.6951 139H78.6567V138.034C78.6567 134.586 80.9196 128.261 83.6645 124.036C86.6003 119.519 89.9754 116.249 95.4 112.668C99.4439 109.998 102.656 108.408 110.025 105.432C120.409 101.237 121.696 100.632 128.544 96.7255C131.332 95.1346 132.685 94.8046 133.417 95.5344C134.04 96.1545 133.886 97.0356 132.805 99.058C131.194 102.072 127.829 106.044 124.702 108.624C123.107 109.94 118.665 113.077 114.832 115.596C110.998 118.115 108.019 120.228 108.214 120.292C108.902 120.522 114.329 118.627 117.888 116.916C123.494 114.221 128.937 110.076 132.498 105.791C136.84 100.563 139.731 95.1037 143.159 85.6494C144.366 82.3195 145.966 78.416 146.713 76.9764Z" fill="#FEF9F5"/>
</svg>
